HIERARCHY
ROOT Hips
{
	OFFSET -0.753655 88.679527 4.807127
	CHANNELS 6 Xposition Yposition Zposition Zrotation Yrotation Xrotation 
	JOINT Spine
	{
		OFFSET -0.000000 8.814246 -2.080107
		CHANNELS 3 Zrotation Yrotation Xrotation
		JOINT Spine1
		{
			OFFSET -0.000000 8.844141 0.000000
			CHANNELS 3 Zrotation Yrotation Xrotation
			JOINT Spine2
			{
				OFFSET 0.000000 11.682268 0.000000
				CHANNELS 3 Zrotation Yrotation Xrotation
				JOINT Spine3
				{
					OFFSET -0.000000 11.746700 0.000000
					CHANNELS 3 Zrotation Yrotation Xrotation
					JOINT Neck
					{
						OFFSET -0.000000 17.658264 0.000000
						CHANNELS 3 Zrotation Yrotation Xrotation
						JOINT Neck1
						{
							OFFSET 0.000000 5.101515 -0.000000
							CHANNELS 3 Zrotation Yrotation Xrotation
							JOINT Head
							{
								OFFSET -0.000000 5.101515 -0.000000
								CHANNELS 3 Zrotation Yrotation Xrotation
								JOINT HeadEnd
								{
									OFFSET 0.000000 11.655085 -0.000000
									CHANNELS 3 Zrotation Yrotation Xrotation
									End Site
									{
										OFFSET 0.000000 0.000000 0.000000
									}
								}
							}
						}
					}
					JOINT RightShoulder
					{
						OFFSET -2.625389 11.175210 -0.000000
						CHANNELS 3 Zrotation Yrotation Xrotation
						JOINT RightArm
						{
							OFFSET 0.000000 10.434715 -0.000000
							CHANNELS 3 Zrotation Yrotation Xrotation
							JOINT RightForeArm
							{
								OFFSET -0.000000 29.628420 0.000000
								CHANNELS 3 Zrotation Yrotation Xrotation
								JOINT RightHand
								{
									OFFSET -0.000000 22.857611 0.000000
									CHANNELS 3 Zrotation Yrotation Xrotation
									JOINT RightHandThumb1
									{
										OFFSET -2.867323 3.959563 2.944291
										CHANNELS 3 Zrotation Yrotation Xrotation
										JOINT RightHandThumb2
										{
											OFFSET -0.000000 3.350399 0.000000
											CHANNELS 3 Zrotation Yrotation Xrotation
											JOINT RightHandThumb3
											{
												OFFSET -0.000000 3.756509 -0.000000
												CHANNELS 3 Zrotation Yrotation Xrotation
												JOINT RightHandThumb4
												{
													OFFSET -0.000000 3.147345 0.000000
													CHANNELS 3 Zrotation Yrotation Xrotation
													End Site
													{
														OFFSET 0.000000 0.000000 0.000000
													}
												}
											}
										}
									}
									JOINT RightHandIndex1
									{
										OFFSET -0.086752 10.030893 2.345280
										CHANNELS 3 Zrotation Yrotation Xrotation
										JOINT RightHandIndex2
										{
											OFFSET 0.000000 4.061090 -0.000000
											CHANNELS 3 Zrotation Yrotation Xrotation
											JOINT RightHandIndex3
											{
												OFFSET 0.000000 3.248873 -0.000000
												CHANNELS 3 Zrotation Yrotation Xrotation
												JOINT RightHandIndex4
												{
													OFFSET 0.000000 2.639709 0.000000
													CHANNELS 3 Zrotation Yrotation Xrotation
													End Site
													{
														OFFSET 0.000000 0.000000 0.000000
													}
												}
											}
										}
									}
									JOINT RightHandMiddle1
									{
										OFFSET 0.104102 9.502952 0.006768
										CHANNELS 3 Zrotation Yrotation Xrotation
										JOINT RightHandMiddle2
										{
											OFFSET 0.000000 4.568727 0.000000
											CHANNELS 3 Zrotation Yrotation Xrotation
											JOINT RightHandMiddle3
											{
												OFFSET 0.000000 3.654981 -0.000000
												CHANNELS 3 Zrotation Yrotation Xrotation
												JOINT RightHandMiddle4
												{
													OFFSET -0.000000 2.741236 0.000000
													CHANNELS 3 Zrotation Yrotation Xrotation
													End Site
													{
														OFFSET 0.000000 0.000000 0.000000
													}
												}
											}
										}
									}
									JOINT RightHandRing1
									{
										OFFSET 0.086752 8.921708 -2.267442
										CHANNELS 3 Zrotation Yrotation Xrotation
										JOINT RightHandRing2
										{
											OFFSET 0.000000 4.061090 -0.000000
											CHANNELS 3 Zrotation Yrotation Xrotation
											JOINT RightHandRing3
											{
												OFFSET -0.000000 3.654981 0.000000
												CHANNELS 3 Zrotation Yrotation Xrotation
												JOINT RightHandRing4
												{
													OFFSET -0.000000 2.741236 0.000000
													CHANNELS 3 Zrotation Yrotation Xrotation
													End Site
													{
														OFFSET 0.000000 0.000000 0.000000
													}
												}
											}
										}
									}
									JOINT RightHandPinky1
									{
										OFFSET -0.173504 7.976997 -4.467199
										CHANNELS 3 Zrotation Yrotation Xrotation
										JOINT RightHandPinky2
										{
											OFFSET -0.000000 3.350399 0.000000
											CHANNELS 3 Zrotation Yrotation Xrotation
											JOINT RightHandPinky3
											{
												OFFSET 0.000000 2.842763 0.000000
												CHANNELS 3 Zrotation Yrotation Xrotation
												JOINT RightHandPinky4
												{
													OFFSET 0.000000 2.639709 0.000000
													CHANNELS 3 Zrotation Yrotation Xrotation
													End Site
													{
														OFFSET 0.000000 0.000000 0.000000
													}
												}
											}
										}
									}
									JOINT RightForeArmEnd
									{
										OFFSET 0.000000 0.000000 0.000000
										CHANNELS 3 Zrotation Yrotation Xrotation
										End Site
										{
											OFFSET 0.000000 0.000000 0.000000
										}
									}
								}
								JOINT RightArmEnd
								{
									OFFSET 0.000000 0.000000 0.000000
									CHANNELS 3 Zrotation Yrotation Xrotation
									End Site
									{
										OFFSET 0.000000 0.000000 0.000000
									}
								}
							}
						}
					}
					JOINT LeftShoulder
					{
						OFFSET 2.625389 11.175210 0.000000
						CHANNELS 3 Zrotation Yrotation Xrotation
						JOINT LeftArm
						{
							OFFSET -0.000000 10.813635 -0.000000
							CHANNELS 3 Zrotation Yrotation Xrotation
							JOINT LeftForeArm
							{
								OFFSET -0.000000 28.724781 -0.000000
								CHANNELS 3 Zrotation Yrotation Xrotation
								JOINT LeftHand
								{
									OFFSET 0.644384 25.716167 -0.328871
									CHANNELS 3 Zrotation Yrotation Xrotation
									JOINT LeftHandThumb1
									{
										OFFSET 2.867323 3.959563 2.944291
										CHANNELS 3 Zrotation Yrotation Xrotation
										JOINT LeftHandThumb2
										{
											OFFSET 0.000000 3.350399 0.000000
											CHANNELS 3 Zrotation Yrotation Xrotation
											JOINT LeftHandThumb3
											{
												OFFSET -0.000000 3.756509 -0.000000
												CHANNELS 3 Zrotation Yrotation Xrotation
												JOINT LeftHandThumb4
												{
													OFFSET 0.000000 3.100000 0.000000
													CHANNELS 3 Zrotation Yrotation Xrotation
													End Site
													{
														OFFSET 0.000000 0.000000 0.000000
													}
												}
											}
										}
									}
									JOINT LeftHandIndex1
									{
										OFFSET 0.086752 10.030893 2.345280
										CHANNELS 3 Zrotation Yrotation Xrotation
										JOINT LeftHandIndex2
										{
											OFFSET 0.000000 4.061090 0.000000
											CHANNELS 3 Zrotation Yrotation Xrotation
											JOINT LeftHandIndex3
											{
												OFFSET -0.000000 3.248873 -0.000000
												CHANNELS 3 Zrotation Yrotation Xrotation
												JOINT LeftHandIndex4
												{
													OFFSET 0.000000 2.639709 0.000000
													CHANNELS 3 Zrotation Yrotation Xrotation
													End Site
													{
														OFFSET 0.000000 0.000000 0.000000
													}
												}
											}
										}
									}
									JOINT LeftHandMiddle1
									{
										OFFSET -0.104102 9.502952 0.006768
										CHANNELS 3 Zrotation Yrotation Xrotation
										JOINT LeftHandMiddle2
										{
											OFFSET -0.000000 4.568727 -0.000000
											CHANNELS 3 Zrotation Yrotation Xrotation
											JOINT LeftHandMiddle3
											{
												OFFSET -0.000000 3.654981 -0.000000
												CHANNELS 3 Zrotation Yrotation Xrotation
												JOINT LeftHandMiddle4
												{
													OFFSET 0.000000 2.741236 0.000000
													CHANNELS 3 Zrotation Yrotation Xrotation
													End Site
													{
														OFFSET 0.000000 0.000000 0.000000
													}
												}
											}
										}
									}
									JOINT LeftHandRing1
									{
										OFFSET -0.086752 8.921708 -2.267442
										CHANNELS 3 Zrotation Yrotation Xrotation
										JOINT LeftHandRing2
										{
											OFFSET 0.000000 4.061090 0.000000
											CHANNELS 3 Zrotation Yrotation Xrotation
											JOINT LeftHandRing3
											{
												OFFSET 0.000000 3.654981 -0.000000
												CHANNELS 3 Zrotation Yrotation Xrotation
												JOINT LeftHandRing4
												{
													OFFSET -0.000000 2.741236 -0.000000
													CHANNELS 3 Zrotation Yrotation Xrotation
													End Site
													{
														OFFSET 0.000000 0.000000 0.000000
													}
												}
											}
										}
									}
									JOINT LeftHandPinky1
									{
										OFFSET 0.173504 7.976997 -4.467199
										CHANNELS 3 Zrotation Yrotation Xrotation
										JOINT LeftHandPinky2
										{
											OFFSET -0.000000 3.350399 -0.000000
											CHANNELS 3 Zrotation Yrotation Xrotation
											JOINT LeftHandPinky3
											{
												OFFSET 0.000000 2.842763 -0.000000
												CHANNELS 3 Zrotation Yrotation Xrotation
												JOINT LeftHandPinky4
												{
													OFFSET -0.000000 2.639709 -0.000000
													CHANNELS 3 Zrotation Yrotation Xrotation
													End Site
													{
														OFFSET 0.000000 0.000000 0.000000
													}
												}
											}
										}
									}
									JOINT LeftForeArmEnd
									{
										OFFSET 0.000000 0.000000 0.000000
										CHANNELS 3 Zrotation Yrotation Xrotation
										End Site
										{
											OFFSET 0.000000 0.000000 0.000000
										}
									}
								}
								JOINT LeftArmEnd
								{
									OFFSET 0.000000 0.000000 0.000000
									CHANNELS 3 Zrotation Yrotation Xrotation
									End Site
									{
										OFFSET 0.000000 0.000000 0.000000
									}
								}
							}
						}
					}
				}
			}
		}
	}
	JOINT RightUpLeg
	{
		OFFSET -11.289943 -0.000000 0.000000
		CHANNELS 3 Zrotation Yrotation Xrotation
		JOINT RightLeg
		{
			OFFSET 0.000000 -38.200325 -0.000000
			CHANNELS 3 Zrotation Yrotation Xrotation
			JOINT RightFoot
			{
				OFFSET -0.000000 -39.900856 0.000000
				CHANNELS 3 Zrotation Yrotation Xrotation
				JOINT RightToeBase
				{
					OFFSET 0.000000 0.000000 15.261641
					CHANNELS 3 Zrotation Yrotation Xrotation
					JOINT RightToeBaseEnd
					{
						OFFSET 0.000000 0.000000 7.370709
						CHANNELS 3 Zrotation Yrotation Xrotation
						End Site
						{
							OFFSET 0.000000 0.000000 0.000000
						}
					}
				}
				JOINT RightLegEnd
				{
					OFFSET 0.000000 0.000000 0.000000
					CHANNELS 3 Zrotation Yrotation Xrotation
					End Site
					{
						OFFSET 0.000000 0.000000 0.000000
					}
				}
			}
			JOINT RightUpLegEnd
			{
				OFFSET 0.000000 0.000000 0.000000
				CHANNELS 3 Zrotation Yrotation Xrotation
				End Site
				{
					OFFSET 0.000000 0.000000 0.000000
				}
			}
		}
	}
	JOINT LeftUpLeg
	{
		OFFSET 11.315661 0.000000 0.000000
		CHANNELS 3 Zrotation Yrotation Xrotation
		JOINT LeftLeg
		{
			OFFSET 0.000000 -38.200325 -0.000000
			CHANNELS 3 Zrotation Yrotation Xrotation
			JOINT LeftFoot
			{
				OFFSET 0.000000 -39.900856 -0.000000
				CHANNELS 3 Zrotation Yrotation Xrotation
				JOINT LeftToeBase
				{
					OFFSET 0.000000 -0.000000 15.261641
					CHANNELS 3 Zrotation Yrotation Xrotation
					JOINT LeftToeBaseEnd
					{
						OFFSET -0.000000 0.000000 7.539996
						CHANNELS 3 Zrotation Yrotation Xrotation
						End Site
						{
							OFFSET 0.000000 0.000000 0.000000
						}
					}
				}
				JOINT LeftLegEnd
				{
					OFFSET 0.000000 0.000000 0.000000
					CHANNELS 3 Zrotation Yrotation Xrotation
					End Site
					{
						OFFSET 0.000000 0.000000 0.000000
					}
				}
			}
			JOINT LeftUpLegEnd
			{
				OFFSET 0.000000 0.000000 0.000000
				CHANNELS 3 Zrotation Yrotation Xrotation
				End Site
				{
					OFFSET 0.000000 0.000000 0.000000
				}
			}
		}
	}
}
MOTION
Frames: 4
Frame Time: 0.016667
-0.753655 88.679527 4.807127 -0.103417 -0.022247 -12.140535 -1.638625 -0.098136 7.881667 -0.625089 0.005545 2.954018 1.838708 -1.095335 7.135654 1.690037 -0.539333 5.278727 -0.458564 -0.436076 3.373291 0.186607 -0.294343 -3.180342 0.508508 0.809219 -17.103802 0.000000 0.000000 0.000000 90.991264 -0.263770 7.629598 66.182632 -26.330309 5.809202 -0.349717 6.132470 29.483334 2.942079 18.004232 -10.207740 10.211040 -1.784677 40.070499 -0.000009 0.000023 -25.002735 -0.000007 0.000049 -17.404428 0.000011 -0.000001 -0.000011 10.175201 16.259815 -10.066208 8.559882 -0.882824 -2.124677 8.433109 0.084072 -1.975294 -0.000002 0.000030 -0.000012 10.797162 6.660715 -10.469764 8.142712 -0.926608 -0.824693 8.170877 0.031789 -0.706668 0.000015 0.000075 0.000021 14.693481 -8.561974 -11.558986 8.932509 1.894846 1.162261 8.893904 -0.042586 0.905711 -0.000018 0.000185 0.000015 18.329220 -24.458136 -13.697567 8.700836 3.749765 3.478712 8.658317 -0.099491 3.001359 -0.000489 -0.000005 0.000008 0.000000 0.000000 0.000000 0.000000 0.000000 0.000000 -90.256340 0.161223 12.518053 -65.283791 36.976089 1.937451 -1.127596 -13.882928 37.591660 -0.577567 -11.798520 -16.826996 -9.887049 1.758082 40.246235 0.000014 0.000018 -23.937101 -0.000161 -0.000018 -16.657356 -0.000529 -0.000011 0.000688 -11.996113 16.049242 -8.589618 -7.082734 -0.821383 2.284380 -7.278913 0.100279 2.136381 -0.000017 0.000316 0.000020 -10.221953 6.608188 -9.340687 -6.888734 -0.909344 0.850696 -6.764007 0.038576 0.750092 -0.000068 -0.000021 -0.000081 -9.779268 -8.482310 -8.356657 -7.953768 1.846963 -1.229002 -7.775933 -0.054440 -0.942471 -0.001522 0.000005 0.000000 -7.652544 -24.524221 -10.233926 -7.991434 3.655384 -3.401088 -8.053147 -0.129285 -2.922624 0.000295 -0.000003 -0.000046 0.000000 0.000000 0.000000 0.000000 0.000000 0.000000 -1.516342 5.991300 10.703588 -0.139156 -0.515725 12.307556 -1.835111 1.885435 15.796644 -0.565578 0.765548 -19.851450 0.000000 0.000000 0.000000 0.000000 0.000000 0.000000 0.000000 0.000000 0.000000 1.474461 13.194410 16.606321 0.035579 0.585330 4.589291 1.296075 9.598392 17.305063 0.748746 -1.127073 -17.299664 0.000000 0.000000 0.000000 0.000000 0.000000 0.000000 0.000000 0.000000 0.000000 
-0.778065 88.530746 4.678957 0.264471 0.088127 -12.401514 -2.060787 0.237944 8.473964 -0.887735 0.208200 2.807213 2.199950 -0.946246 7.517542 1.859523 -0.302236 4.724174 -0.763577 -0.460886 3.223667 0.444084 -0.242633 -3.747668 0.203414 0.360019 -17.750566 0.000000 0.000000 0.000000 90.529320 -0.200338 8.535657 67.092262 -24.900988 4.009796 0.003080 8.684268 28.881273 3.780832 17.008793 -8.362197 10.475237 -1.817331 39.959038 -0.000013 0.000007 -25.610067 -0.000007 0.000038 -17.804838 0.000004 -0.000005 -0.000006 10.317698 15.960903 -9.055522 8.707891 -0.750557 -2.308637 8.780392 0.174345 -2.161141 -0.000020 0.000009 -0.000015 10.584723 6.574777 -9.943067 8.220778 -0.875233 -0.901462 8.229982 0.060231 -0.770162 0.000017 -0.000008 0.000015 14.368241 -8.451180 -10.663528 8.729321 1.795578 1.231780 8.652667 -0.074310 0.960118 -0.000020 -0.000314 0.000011 18.214890 -24.078091 -12.756286 8.317590 3.507804 3.563256 8.132206 -0.221990 3.094976 0.000028 -0.000004 0.000011 0.000000 0.000000 0.000000 0.000000 0.000000 0.000000 -89.860245 0.119805 12.131698 -64.477600 37.039242 3.380153 -0.945947 -12.793884 37.196552 -1.638894 -10.322595 -14.820166 -10.088254 1.780686 40.140503 0.000002 0.000011 -24.581192 -0.000022 -0.000024 -17.061268 -0.000601 -0.000005 0.000088 -12.572330 16.009052 -9.233508 -7.268135 -0.755427 2.282526 -7.462953 0.161814 2.162147 -0.000009 0.000722 0.000002 -10.717769 6.591645 -9.992429 -7.044668 -0.881456 0.868396 -6.847495 0.053940 0.749421 0.000292 -0.000040 -0.000058 -9.429809 -8.450072 -9.484852 -7.760292 1.805545 -1.213366 -7.608462 -0.066229 -0.934397 0.000301 0.000008 -0.000000 -6.603342 -24.347662 -11.519431 -7.681443 3.515764 -3.294243 -7.644008 -0.203737 -2.845988 -0.000138 -0.000013 -0.000031 0.000000 0.000000 0.000000 0.000000 0.000000 0.000000 -1.650756 6.022455 9.955540 -0.170889 -0.610416 12.662719 -1.629825 1.492103 16.244184 -0.590991 0.718483 -20.258532 0.000000 0.000000 0.000000 0.000000 0.000000 0.000000 0.000000 0.000000 0.000000 1.675187 13.056043 17.003208 0.031599 0.673244 4.799410 1.204039 11.309736 16.621044 0.881583 -1.044168 -17.091663 0.000000 0.000000 0.000000 0.000000 0.000000 0.000000 0.000000 0.000000 0.000000 
-0.799531 88.527313 4.675850 0.186984 0.056469 -12.422782 -2.018538 0.224056 8.485249 -0.857710 0.199518 2.833432 2.131438 -0.927887 7.489258 1.897401 -0.322813 4.682857 -0.874803 -0.248245 3.327756 0.470992 -0.055682 -3.649474 0.121996 0.349025 -17.801863 0.000000 0.000000 0.000000 90.509499 -0.182319 8.485162 66.901733 -24.969778 4.201477 -0.035230 8.593339 28.829756 4.074621 17.083519 -8.430505 10.431596 -1.816335 39.976921 -0.000007 0.000018 -25.512630 -0.000008 0.000036 -17.739552 0.000016 0.000001 -0.000017 10.207753 15.945381 -8.843273 8.623799 -0.760581 -2.271394 8.699059 0.164111 -2.127637 -0.000001 0.000022 -0.000016 10.490569 6.567969 -9.768836 8.140987 -0.879275 -0.886019 8.134229 0.056499 -0.757096 0.000016 -0.000029 0.000007 14.320370 -8.443937 -10.611234 8.661232 1.802124 1.213963 8.581977 -0.069090 0.944659 -0.000024 -0.000180 0.000000 18.242767 -24.055229 -12.836404 8.287746 3.527357 3.522643 8.096690 -0.207374 3.058615 0.000065 0.000007 0.000001 0.000000 0.000000 0.000000 0.000000 0.000000 0.000000 -89.862206 0.090319 12.073933 -64.545364 37.005375 3.124340 -0.908809 -12.682566 37.449333 -1.725246 -10.189377 -14.928288 -10.110468 1.781052 40.128204 0.000012 0.000017 -24.640596 -0.000028 -0.000015 -17.099178 -0.000602 0.000005 -0.000039 -12.740819 16.020292 -9.186043 -7.391678 -0.760052 2.273423 -7.584364 0.157951 2.151529 0.000006 0.000626 0.000006 -10.855755 6.595594 -9.997534 -7.141853 -0.883071 0.860973 -6.949443 0.052686 0.744776 0.000313 -0.000036 -0.000089 -9.511978 -8.450902 -9.550335 -7.827741 1.808578 -1.207578 -7.675860 -0.063984 -0.930246 0.000387 0.000013 0.000002 -6.634297 -24.353399 -11.671049 -7.732688 3.522994 -3.277324 -7.699156 -0.197835 -2.837685 -0.000076 0.000005 -0.000048 0.000000 0.000000 0.000000 0.000000 0.000000 0.000000 -1.537175 5.995589 9.952985 -0.166804 -0.604351 12.669524 -1.703704 1.574675 16.276999 -0.569480 0.717997 -20.261410 0.000000 0.000000 0.000000 0.000000 0.000000 0.000000 0.000000 0.000000 0.000000 1.770445 13.087167 17.149992 0.031734 0.674948 4.640372 1.106901 11.342605 16.648846 0.893113 -1.041222 -17.109745 0.000000 0.000000 0.000000 0.000000 0.000000 0.000000 0.000000 0.000000 0.000000 
-0.816239 88.525414 4.673605 0.151667 0.040218 -12.429527 -1.997703 0.218658 8.495774 -0.827422 0.194185 2.832097 2.083241 -0.883299 7.477043 1.933011 -0.323032 4.642057 -0.989194 -0.080647 3.382123 0.487940 0.070982 -3.599819 0.077257 0.351009 -17.875408 0.000000 0.000000 0.000000 90.483032 -0.175402 8.432722 66.798523 -24.963781 4.322961 -0.060891 8.619959 28.706781 4.209281 17.217007 -8.443496 10.380208 -1.812351 39.999859 -0.000005 0.000018 -25.390738 -0.000010 0.000037 -17.655313 0.000015 0.000001 -0.000017 9.994788 15.947472 -8.657326 8.558842 -0.770828 -2.225072 8.631124 0.153707 -2.086299 0.000000 0.000022 -0.000017 10.293215 6.568746 -9.617962 8.075070 -0.883506 -0.867634 8.058050 0.052599 -0.741466 0.000015 -0.000032 0.000009 14.186813 -8.446478 -10.548309 8.614169 1.807843 1.194233 8.537642 -0.064505 0.928082 -0.000023 -0.000064 0.000002 18.202646 -24.055798 -12.874568 8.284760 3.542880 3.482896 8.089784 -0.196138 3.021837 0.000085 0.000006 -0.000006 0.000000 0.000000 0.000000 0.000000 0.000000 0.000000 -89.820892 0.075736 12.018352 -64.652260 36.897816 2.937621 -0.883523 -12.630492 37.667267 -1.766322 -10.000294 -14.888999 -10.126497 1.782482 40.116333 0.000010 0.000018 -24.698126 -0.000034 -0.000016 -17.135532 -0.000615 0.000003 -0.000087 -12.847717 16.025175 -9.156263 -7.494225 -0.765328 2.252149 -7.682604 0.153216 2.128860 0.000004 0.000541 0.000007 -10.935190 6.597459 -10.001193 -7.223142 -0.884982 0.849950 -7.033760 0.051009 0.736188 0.000311 -0.000037 -0.000103 -9.553471 -8.452116 -9.606788 -7.890238 1.811591 -1.196707 -7.736998 -0.061779 -0.921693 0.000429 0.000013 0.000002 -6.647389 -24.358543 -11.785185 -7.786888 3.529308 -3.251896 -7.748073 -0.192303 -2.815950 -0.000055 0.000004 -0.000049 0.000000 0.000000 0.000000 0.000000 0.000000 0.000000 -1.488640 5.991663 9.972925 -0.164205 -0.599872 12.654593 -1.750001 1.652068 16.287958 -0.555667 0.716229 -20.265596 0.000000 0.000000 0.000000 0.000000 0.000000 0.000000 0.000000 0.000000 0.000000 1.803040 13.116923 17.243052 0.031581 0.675984 4.529480 1.065190 11.396179 16.678555 0.900109 -1.037827 -17.119844 0.000000 0.000000 0.000000 0.000000 0.000000 0.000000 0.000000 0.000000 0.000000 
